<svg width="37" height="34" viewBox="0 0 37 34" fill="none" xmlns="http://www.w3.org/2000/svg">
<g clip-path="url(#clip0_147_34)">
<path d="M34.7875 4.2496C33.3391 5.20652 31.7354 5.93842 30.0383 6.4171C29.1273 5.43607 27.9167 4.74074 26.5701 4.42516C25.2236 4.10957 23.806 4.18896 22.5092 4.65257C21.2123 5.11619 20.0988 5.94167 19.3191 7.01736C18.5395 8.09306 18.1314 9.36707 18.15 10.6671V12.0838C15.492 12.1483 12.8582 11.5962 10.4832 10.4765C8.10814 9.35679 6.06562 7.70433 4.53751 5.66626C4.53751 5.66626 -1.51249 18.4163 12.1 24.0829C8.98506 26.0634 5.27434 27.0564 1.51251 26.9163C15.125 33.9996 31.7625 26.9163 31.7625 10.6246C31.7611 10.23 31.7206 9.83636 31.6415 9.44876C33.1852 8.02288 34.2745 6.22261 34.7875 4.2496Z" stroke="#F3F3F3" stroke-width="4" stroke-linecap="round" stroke-linejoin="round"/>
</g>
<defs>
<clipPath id="clip0_147_34">
<rect width="36.3" height="34" fill="white"/>
</clipPath>
</defs>
</svg>
