<svg width="25" height="25" viewBox="0 0 25 25" fill="none" xmlns="http://www.w3.org/2000/svg">
<g clip-path="url(#clip0_147_34)">
<path d="M23.9584 3.12473C22.9608 3.82835 21.8564 4.36651 20.6875 4.71848C20.0602 3.99714 19.2264 3.48587 18.299 3.25382C17.3716 3.02177 16.3953 3.08014 15.5022 3.42104C14.609 3.76193 13.8421 4.3689 13.3052 5.15985C12.7683 5.95081 12.4872 6.88758 12.5 7.84348V8.88515C10.6694 8.93262 8.85551 8.52662 7.21982 7.70332C5.58413 6.88002 4.17743 5.66498 3.12502 4.1664C3.12502 4.1664 -1.04165 13.5414 8.33335 17.7081C6.18807 19.1643 3.63248 19.8945 1.04169 19.7914C10.4167 24.9997 21.875 19.7914 21.875 7.81223C21.8741 7.52208 21.8462 7.23264 21.7917 6.94765C22.8548 5.8992 23.6051 4.57548 23.9584 3.12473Z" stroke="#F3F3F3" stroke-width="4" stroke-linecap="round" stroke-linejoin="round"/>
</g>
<defs>
<clipPath id="clip0_147_34">
<rect width="25" height="25" fill="white"/>
</clipPath>
</defs>
</svg>
